<svg id="Capa_1" enable-background="new 0 0 509.985 509.985" height="512" viewBox="0 0 509.985 509.985" width="512" xmlns="http://www.w3.org/2000/svg" xmlns:xlink="http://www.w3.org/1999/xlink"><linearGradient id="lg1"><stop offset="0" stop-color="#fe646f"/><stop offset=".593" stop-color="#fb2b3a"/><stop offset="1" stop-color="#c41926"/></linearGradient><linearGradient id="SVGID_1_" gradientUnits="userSpaceOnUse" x1="62.162" x2="599.756" xlink:href="#lg1" y1="254.993" y2="254.993"/><linearGradient id="SVGID_2_" gradientUnits="userSpaceOnUse" x1="-71.427" x2="500.682" xlink:href="#lg1" y1="254.98" y2="254.98"/><linearGradient id="lg2"><stop offset="0" stop-color="#fff9df"/><stop offset=".593" stop-color="#ffe177"/><stop offset="1" stop-color="#feb237"/></linearGradient><linearGradient id="SVGID_3_" gradientUnits="userSpaceOnUse" x1="67.993" x2="420.504" xlink:href="#lg2" y1="311.732" y2="311.732"/><linearGradient id="SVGID_4_" gradientUnits="userSpaceOnUse" x1="67.993" x2="420.504" xlink:href="#lg2" y1="237.787" y2="237.787"/><linearGradient id="SVGID_6_" gradientUnits="userSpaceOnUse" x1="67.993" x2="420.504" xlink:href="#lg2" y1="157.468" y2="157.468"/><linearGradient id="SVGID_8_" gradientUnits="userSpaceOnUse" x1="11.993" x2="261.644" xlink:href="#lg1" y1="71.757" y2="71.757"/><linearGradient id="SVGID_9_" gradientUnits="userSpaceOnUse" x1="93.565" x2="368.383" xlink:href="#lg2" y1="311.732" y2="311.732"/><g><path d="m367.161 39.127c-45.561.071-86.11 21.51-112.168 54.829-26.059-33.32-66.608-54.759-112.17-54.829-79.494-.122-143.46 66.134-142.818 145.625.992 122.936 62.738 185.176 166.508 258.025l.267.188c52.944 37.169 123.499 37.193 176.468.06 103.897-72.834 165.736-135.237 166.733-258.261.643-79.499-63.319-145.76-142.82-145.637z" fill="url(#SVGID_1_)"/><path d="m367.161 39.127c-6.75.01-13.387.501-19.886 1.419 69.889 9.965 123.274 71.557 122.686 144.218-.997 123.024-62.835 185.427-166.733 258.261-20.735 14.536-44.168 23.351-68.182 26.5 37.295 4.891 75.997-3.924 108.202-26.5 103.897-72.834 165.736-135.237 166.733-258.261.643-79.499-63.319-145.76-142.82-145.637z" fill="url(#SVGID_2_)"/><g><path d="m254.992 226.574c-28.163 0-54.64 10.968-74.555 30.882-19.914 19.914-30.882 46.392-30.882 74.555 0 17.516 4.388 34.868 12.69 50.181 3.994 7.368 10.995 12.529 19.208 14.159 8.159 1.62 16.537-.454 22.984-5.69 14.436-11.724 31.918-17.921 50.555-17.921 18.636 0 36.118 6.197 50.554 17.921 5.012 4.07 11.191 6.23 17.527 6.23 2.565 0 5.156-.354 7.706-1.079 7.471-2.124 13.641-7.392 17.296-14.246 8.287-15.54 12.554-33.095 12.346-50.82-.329-27.994-11.433-54.201-31.264-73.793-19.828-19.591-46.167-30.379-74.165-30.379z" fill="url(#SVGID_3_)"/><circle cx="137.404" cy="237.787" fill="url(#SVGID_4_)" r="37.269"/><circle cx="372.581" cy="237.787" fill="url(#SVGID_4_)" r="37.269"/><g fill="url(#SVGID_6_)"><circle cx="309.648" cy="157.468" r="37.269"/><circle cx="200.337" cy="157.468" r="37.269"/></g></g><path d="m125.436 59.19c38.335.059 73.122 15.246 98.714 39.909 7.822 7.538 20.378 6.931 27.492-1.278l3.349-3.865c-26.059-33.32-66.608-54.759-112.17-54.829-47.586-.073-89.6 23.644-115.53 59.743 25.56-24.56 60.068-39.738 98.145-39.68z" fill="url(#SVGID_8_)"/><path d="m329.158 256.951c-19.829-19.589-46.168-30.378-74.166-30.378-6.782 0-13.465.642-19.983 1.886 20.37 3.879 39.116 13.66 54.128 28.491 19.831 19.592 30.935 45.799 31.264 73.793.209 17.725-4.058 35.28-12.346 50.82-1.385 2.597-3.132 4.965-5.173 7.022.899.671 1.788 1.361 2.664 2.073 5.012 4.07 11.191 6.23 17.527 6.23 2.565 0 5.156-.354 7.706-1.079 7.471-2.124 13.641-7.392 17.296-14.246 8.287-15.54 12.554-33.095 12.346-50.82-.329-27.992-11.432-54.199-31.263-73.792z" fill="url(#SVGID_9_)"/></g></svg>